<svg width="379" height="22" viewBox="0 0 379 22" fill="none" xmlns="http://www.w3.org/2000/svg">
<path d="M8.544 6.464H7.184C7.008 4.96 6.192 4.288 4.528 4.288C3.008 4.288 2.128 4.944 2.128 6.064C2.128 6.56 2.336 6.944 2.688 7.152C3.168 7.424 3.552 7.552 5.024 7.856C6.464 8.176 7.136 8.384 7.68 8.752C8.528 9.28 8.96 10.064 8.96 11.008C8.96 11.984 8.544 12.832 7.776 13.44C7.056 13.984 6.128 14.24 4.816 14.24C2.032 14.24 0.416 12.864 0.4 10.48H1.76C1.808 12.16 2.896 13.04 4.912 13.04C6.56 13.04 7.536 12.32 7.536 11.104C7.536 10.4 7.232 9.984 6.416 9.616C6.016 9.424 5.792 9.36 4.464 9.056C2.576 8.608 2.384 8.56 1.872 8.24C1.152 7.808 0.768 7.088 0.768 6.144C0.768 4.256 2.208 3.088 4.528 3.088C7.04 3.088 8.464 4.288 8.544 6.464ZM13.814 6.272V7.312H12.262V11.872C12.262 12.896 12.39 13.072 13.126 13.072C13.366 13.072 13.542 13.04 13.814 12.976V14.064C13.446 14.112 13.19 14.128 12.822 14.128C11.974 14.128 11.478 13.936 11.222 13.52C11.014 13.2 10.998 12.96 10.998 11.168V7.312H9.702V6.272H10.998V3.968H12.262V6.272H13.814ZM22.1038 12.976V13.968C21.8638 14.112 21.5598 14.176 21.1758 14.176C20.4718 14.176 20.1358 13.808 20.1038 12.976C19.4158 13.792 18.5518 14.176 17.4158 14.176C15.7998 14.176 14.8398 13.376 14.8398 12.016C14.8398 11.184 15.1918 10.512 15.7998 10.144C16.3438 9.84 17.0958 9.648 18.6318 9.424C19.7518 9.28 20.0558 9.072 20.0558 8.448C20.0558 7.6 19.5118 7.216 18.3118 7.216C17.0478 7.216 16.5358 7.616 16.4078 8.672H15.1438C15.2238 7.744 15.4318 7.264 15.9918 6.8C16.5518 6.32 17.3518 6.096 18.4557 6.096C20.3598 6.096 21.3198 6.784 21.3198 8.16V12.624C21.3198 12.912 21.4478 13.056 21.7038 13.056C21.8478 13.056 22.0078 13.024 22.1038 12.976ZM20.0398 11.328V10.016C20.0078 10.032 19.9598 10.048 19.9598 10.048L19.8318 10.128C19.6398 10.224 19.3998 10.288 19.1438 10.32L17.8318 10.512C16.7278 10.672 16.1838 11.12 16.1838 11.904C16.1838 12.656 16.7118 13.056 17.7038 13.056C19.0158 13.056 20.0398 12.304 20.0398 11.328ZM27.6375 6.048V7.376C27.4615 7.36 27.3015 7.344 27.2375 7.344C26.5655 7.344 25.9895 7.584 25.5575 8.016C24.9815 8.608 24.8215 9.248 24.8215 10.992V14H23.5575V6.272H24.7415V7.888C25.2535 6.64 26.2615 6 27.6375 6.048ZM32.3296 6.272V7.312H30.7776V11.872C30.7776 12.896 30.9056 13.072 31.6416 13.072C31.8816 13.072 32.0576 13.04 32.3296 12.976V14.064C31.9616 14.112 31.7056 14.128 31.3376 14.128C30.4896 14.128 29.9936 13.936 29.7376 13.52C29.5296 13.2 29.5136 12.96 29.5136 11.168V7.312H28.2176V6.272H29.5136V3.968H30.7776V6.272H32.3296Z" fill="white"/>
<line x1="53" y1="10.5" x2="109" y2="10.5" stroke="#C4C4C4"/>
<circle cx="47" cy="11" r="6.5" stroke="#00BED5"/>
<circle cx="47" cy="11" r="4" fill="#00BED5"/>
<line x1="121" y1="10.5" x2="177" y2="10.5" stroke="#C4C4C4"/>
<circle cx="115" cy="11" r="6.5" stroke="#C4C4C4"/>
<circle cx="115" cy="11" r="4" fill="#C4C4C4"/>
<line x1="190" y1="10.5" x2="245" y2="10.5" stroke="#C4C4C4"/>
<circle cx="184" cy="11" r="6.5" stroke="#C4C4C4"/>
<circle cx="184" cy="11" r="4" fill="#C4C4C4"/>
<circle cx="252" cy="11" r="6.5" stroke="#C4C4C4"/>
<circle cx="252" cy="11" r="4" fill="#C4C4C4"/>
<line x1="259" y1="10.5" x2="305" y2="10.5" stroke="#C4C4C4"/>
<path d="M321.864 9.984C321.64 11.968 320.536 13.04 318.728 13.04C316.52 13.04 315.128 11.36 315.128 8.672C315.128 7.616 315.4 6.592 315.864 5.84C316.504 4.8 317.448 4.288 318.728 4.288C320.312 4.288 321.448 5.136 321.768 6.528H323.176C323.112 5.76 322.776 5.056 322.216 4.448C321.368 3.536 320.232 3.088 318.76 3.088C317.256 3.088 316.056 3.584 315.16 4.576C314.184 5.648 313.704 7.008 313.704 8.688C313.704 12.096 315.608 14.24 318.648 14.24C321.304 14.24 323.048 12.64 323.272 9.984H321.864ZM328.323 6.048C325.987 6.048 324.515 7.616 324.515 10.144C324.515 12.64 325.987 14.224 328.307 14.224C330.611 14.224 332.003 12.688 332.003 10.128C332.003 7.632 330.563 6.048 328.323 6.048ZM328.307 7.12C329.763 7.12 330.707 8.288 330.707 10.112C330.707 12 329.795 13.152 328.291 13.152C326.755 13.152 325.811 12.016 325.811 10.144C325.811 8.272 326.771 7.12 328.307 7.12ZM334.913 6.272H333.729V14H334.993V9.904C334.993 9.088 335.057 8.624 335.217 8.256C335.537 7.536 336.241 7.104 337.057 7.104C337.553 7.104 337.953 7.264 338.193 7.552C338.417 7.808 338.513 8.24 338.513 9.04V14H339.777V9.904C339.777 8.944 339.809 8.576 339.953 8.256C340.273 7.536 340.929 7.12 341.761 7.12C342.433 7.12 342.961 7.392 343.169 7.872C343.265 8.096 343.313 8.512 343.313 9.136V14H344.577V8.672C344.577 7.888 344.481 7.424 344.209 7.008C343.809 6.4 343.057 6.048 342.161 6.048C341.057 6.048 340.225 6.48 339.569 7.408C339.185 6.464 338.529 6.048 337.441 6.048C336.369 6.048 335.633 6.432 334.913 7.392V6.272ZM347.898 6.272H346.714V17.008H347.978V12.944C348.586 13.824 349.402 14.224 350.554 14.224C352.634 14.224 354.026 12.608 354.026 10.176C354.026 7.68 352.618 6.048 350.474 6.048C349.306 6.048 348.506 6.464 347.898 7.376V6.272ZM350.362 7.12C351.77 7.12 352.73 8.352 352.73 10.176C352.73 11.984 351.802 13.152 350.362 13.152C348.858 13.152 347.93 12 347.93 10.128C347.93 8.24 348.842 7.12 350.362 7.12ZM357.04 3.328H355.776V14H357.04V3.328ZM364.588 11.52C364.22 12.672 363.612 13.152 362.54 13.152C360.972 13.152 360.156 12.256 360.108 10.448H365.916C365.932 9.392 365.82 8.688 365.548 8.064C365.004 6.8 363.82 6.048 362.412 6.048C360.3 6.048 358.796 7.76 358.796 10.176C358.796 12.672 360.188 14.224 362.46 14.224C364.3 14.224 365.42 13.328 365.836 11.52H364.588ZM360.124 9.408C360.316 7.904 361.1 7.104 362.38 7.104C363.66 7.104 364.492 7.968 364.604 9.408H360.124ZM370.517 6.272H368.965V3.968H367.701V6.272H366.405V7.312H367.701V11.168C367.701 12.96 367.717 13.2 367.925 13.52C368.181 13.936 368.677 14.128 369.525 14.128C369.893 14.128 370.149 14.112 370.517 14.064V12.976C370.245 13.04 370.069 13.072 369.829 13.072C369.093 13.072 368.965 12.896 368.965 11.872V7.312H370.517V6.272ZM377.12 11.52C376.752 12.672 376.144 13.152 375.072 13.152C373.504 13.152 372.688 12.256 372.64 10.448H378.448C378.464 9.392 378.352 8.688 378.08 8.064C377.536 6.8 376.352 6.048 374.944 6.048C372.832 6.048 371.328 7.76 371.328 10.176C371.328 12.672 372.72 14.224 374.992 14.224C376.832 14.224 377.952 13.328 378.368 11.52H377.12ZM372.656 9.408C372.848 7.904 373.632 7.104 374.911 7.104C376.192 7.104 377.024 7.968 377.136 9.408H372.656Z" fill="#C4C4C4"/>
</svg>
